<svg height="512pt" viewBox="0 -2 512 512" width="512pt" xmlns="http://www.w3.org/2000/svg"><path d="m56 508.550781v-304l200-128 200 128v304zm0 0" fill="#91e8ed"/><path d="m152 196.550781h208v160h-208zm0 0" fill="#ffea00"/><path d="m62.9375 140.550781h-29.875l-17.0625 128h64zm0 0" fill="#c8d1da"/><path d="m16 268.550781h64v240h-64zm0 0" fill="#ffea00"/><path d="m88 108.550781c0 22.09375-17.910156 40-40 40s-40-17.90625-40-40c0-47.496093 40-96 40-96s40 48.25 40 96zm0 0" fill="#50575e"/><path d="m48 388.550781h368v112h-368zm0 0" fill="#e4e8ed"/><g fill="#00c3ff"><path d="m400.640625 388.550781-21.199219-78.878906-294.242187 78.878906zm0 0"/><path d="m85.199219 388.550781h-23.679688l257.199219-148.480469 42.960938 74.402344zm0 0"/><path d="m136 444.550781c0 13.257813-10.746094 24-24 24s-24-10.742187-24-24c0-13.253906 10.746094-24 24-24s24 10.746094 24 24zm0 0"/></g><path d="m176 388.550781h80v112h-80zm0 0" fill="#9ccc65"/><path d="m256 388.550781h80v112h-80zm0 0" fill="#ffea00"/><path d="m336 388.550781h80v112h-80zm0 0" fill="#ff8a80"/><path d="m112 476.550781c17.671875 0 32-14.324219 32-32 0-17.671875-14.328125-32-32-32s-32 14.328125-32 32c0 17.675781 14.328125 32 32 32zm0-48c8.835938 0 16 7.164063 16 16 0 8.835938-7.164062 16-16 16s-16-7.164062-16-16c0-8.835937 7.164062-16 16-16zm0 0"/><path d="m464 492.550781v-292.375l-208-133.121093-179.496094 114.875-4.257812-32c9.042968-5.3125 16.109375-13.421876 20.128906-23.105469l163.625-104.769531 243.6875 155.953124 8.625-13.457031-252.3125-161.496093-160.144531 102.519531c-1.535157-49.023438-40.023438-96.109375-41.695313-98.125l-6.160156-7.449219-6.152344 7.464844c-1.726562 2.070312-41.847656 51.289062-41.847656 101.085937.0273438 17.019531 9.0625 32.753907 23.753906 41.351563l-15.683594 117.601562-.070312 241.046875h16v-232h48v96.714844l-12.625 7.285156h-19.375v128h384v-128h-17.222656l-21.6875-80.671875-17.089844 4.578125v-115.90625h-224v143.144531l-56 32.335938v-95.480469l-9.175781-69.109375 177.175781-113.394531 192 122.882813v299.621093h64v-16zm-438.863281-232 13.984375-104.855469c5.863281 1.140626 11.894531 1.140626 17.757812 0l13.984375 104.855469zm30.863281-121.136719v-30.863281h-16v30.863281c-14.085938-3.636718-23.945312-16.316406-24-30.863281 0-32.957031 21.207031-67.304687 32-82.648437 10.816406 15.296875 32 49.523437 32 82.648437-.054688 14.546875-9.914062 27.226563-24 30.863281zm192 353.136719h-64v-96h64zm80 0h-64v-96h64zm80-96v96h-64v-96zm-34.207031-77.078125 16.414062 61.078125h-244.269531zm-109.792969-114.921875h88v77.152344l-30.351562-52.558594-57.648438 33.28125zm-104 0h88v64h-88zm0 80h65.664062l-65.664062 37.914063zm155.792969-33.550781 33.726562 58.398438-251.863281 67.539062zm-147.792969 145.550781v96h-112v-96zm0 0"/></svg>