<?xml version="1.0" encoding="iso-8859-1"?>
<!-- Generator: Adobe Illustrator 19.0.0, SVG Export Plug-In . SVG Version: 6.00 Build 0)  -->
<svg version="1.1" id="Capa_1" xmlns="http://www.w3.org/2000/svg" xmlns:xlink="http://www.w3.org/1999/xlink" x="0px" y="0px"
	 viewBox="0 0 512.042 512.042" style="enable-background:new 0 0 512.042 512.042;" xml:space="preserve">
<path style="fill:#0277BD;" d="M415.559,476.992c-0.469-1.6-11.584-39.424-21.653-64.917c-1.177-3.081-3.713-5.443-6.869-6.4
	c-3.13-0.967-6.532-0.415-9.195,1.493c-14.47,9.945-33.098,11.565-49.067,4.267c-13.387-7.794-20.992-22.687-19.456-38.101V234.667
	h74.667c5.891,0,10.667-4.776,10.667-10.667v-85.333c0-5.891-4.776-10.667-10.667-10.667h-74.667V10.667
	C309.319,4.776,304.544,0,298.653,0h-85.333c-5.891,0-10.667,4.776-10.667,10.667c0,79.36-50.688,138.667-96,138.667
	c-5.891,0-10.667,4.776-10.667,10.667v64c0,5.891,4.776,10.667,10.667,10.667h74.667v160c0,74.667,46.656,117.333,128,117.333
	c35.102,0.688,69.851-7.114,101.291-22.741C414.902,486.81,416.95,481.734,415.559,476.992z"/>
<path d="M309.319,512c-81.344,0-128-42.667-128-117.333v-160h-74.667c-5.891,0-10.667-4.776-10.667-10.667v-64
	c0-5.891,4.776-10.667,10.667-10.667c45.312,0,96-59.285,96-138.667C202.653,4.776,207.428,0,213.319,0h85.333
	c5.891,0,10.667,4.776,10.667,10.667V128h74.667c5.891,0,10.667,4.776,10.667,10.667V224c0,5.891-4.776,10.667-10.667,10.667
	h-74.667v138.667c-1.526,15.435,6.105,30.338,19.52,38.123c15.966,7.315,34.603,5.695,49.067-4.267
	c4.818-3.389,11.472-2.231,14.861,2.587c0.488,0.694,0.892,1.444,1.203,2.234c10.069,25.6,21.184,63.317,21.653,64.917
	c1.391,4.742-0.657,9.818-4.949,12.267C379.218,504.846,344.448,512.669,309.319,512z M117.319,213.333h74.667
	c5.891,0,10.667,4.776,10.667,10.667v170.667c0,79.36,58.005,96,106.667,96c28.55,0.2,56.847-5.358,83.2-16.341
	c-3.115-10.155-8.533-27.541-14.144-43.029c-18.96,8.377-40.636,8.042-59.328-0.917c-20.58-11.343-32.701-33.604-31.061-57.045V224
	c0-5.891,4.776-10.667,10.667-10.667h74.667v-64h-74.667c-5.891,0-10.667-4.776-10.667-10.667V21.333h-64.277
	c-4.139,82.688-56.064,141.163-106.389,148.544V213.333z"/>
<g>
</g>
<g>
</g>
<g>
</g>
<g>
</g>
<g>
</g>
<g>
</g>
<g>
</g>
<g>
</g>
<g>
</g>
<g>
</g>
<g>
</g>
<g>
</g>
<g>
</g>
<g>
</g>
<g>
</g>
</svg>
